<?xml version="1.0" encoding="UTF-8"?>
<svg id="Layer_2" data-name="Layer 2" xmlns="http://www.w3.org/2000/svg" viewBox="0 0 364.33 101.53">
  <defs>
    <style>
      .cls-1 {
        fill: #000;
        stroke-width: 0px;
      }
    </style>
  </defs>
  <g id="Layer_1-2" data-name="Layer 1">
    <path class="cls-1" d="M126.76.2h10.89v61.5h-10.89V.2Z"/>
    <path class="cls-1" d="M71.76,6.69h24.89c6.1,0,10.4,1.53,13.24,4.37,1.94,1.94,3.12,4.51,3.12,7.83v.14c0,5.62-3.19,8.94-7.49,10.81,5.89,1.94,9.64,5.27,9.64,11.85v.14c0,8.32-6.79,13.38-18.37,13.38h-25.02V6.69ZM93.32,26.03c4.09,0,6.38-1.39,6.38-4.23v-.14c0-2.63-2.08-4.16-6.1-4.16h-8.73v8.53h8.46ZM95.26,44.4c4.09,0,6.45-1.59,6.45-4.44v-.14c0-2.63-2.08-4.37-6.59-4.37h-10.26v8.94h10.4Z"/>
    <path class="cls-1" d="M149.85,6.69h20.8c12.27,0,20.17,6.31,20.17,17.05v.14c0,11.44-8.8,17.47-20.87,17.47h-6.65v13.86h-13.45V6.69ZM169.67,30.81c4.78,0,7.69-2.5,7.69-6.31v-.14c0-4.16-2.91-6.38-7.76-6.38h-6.31v12.82h6.38Z"/>
    <path class="cls-1" d="M194.83,31.09v-.14c0-13.93,11.23-25.23,26.2-25.23s26.06,11.16,26.06,25.09v.14c0,13.93-11.23,25.23-26.2,25.23s-26.06-11.16-26.06-25.09ZM233.38,31.09v-.14c0-7-5.06-13.1-12.48-13.1s-12.27,5.96-12.27,12.96v.14c0,7,5.06,13.1,12.41,13.1s12.34-5.96,12.34-12.96Z"/>
    <path class="cls-1" d="M250.08,48l7.49-8.94c4.78,3.81,10.12,5.82,15.74,5.82,3.6,0,5.55-1.25,5.55-3.33v-.14c0-2.01-1.59-3.12-8.18-4.64-10.33-2.36-18.3-5.27-18.3-15.25v-.14c0-9.01,7.14-15.53,18.79-15.53,8.25,0,14.7,2.22,19.96,6.45l-6.72,9.5c-4.44-3.12-9.29-4.78-13.59-4.78-3.26,0-4.85,1.39-4.85,3.12v.14c0,2.22,1.66,3.19,8.39,4.71,11.16,2.43,18.09,6.03,18.09,15.11v.14c0,9.91-7.83,15.81-19.62,15.81-8.6,0-16.78-2.7-22.74-8.04Z"/>
    <path class="cls-1" d="M294.64,0c-.89,0-1.62.73-1.62,1.62v6.48c0,.89.73,1.62,1.62,1.62h9.72c.89,0,1.62-.73,1.62-1.62V1.62c0-.89-.73-1.62-1.62-1.62h-9.72ZM297.31,3.23v4.05h-.96V3.23h-1.38v-.81h3.72v.8h-1.38ZM300.06,4.06v3.23h-.86V2.43h.98l1.38,3.15h.03l1.38-3.15h.97v4.86h-.87v-3.23h-.05l-1.15,2.62h-.63l-1.16-2.62h-.05Z"/>
    <g>
      <path class="cls-1" d="M17.72,81.88v19.32h-3.67l-9.63-11.73v11.73H0v-19.32h3.7l9.6,11.73v-11.73h4.42Z"/>
      <path class="cls-1" d="M36.45,94.99h-11.23c.2.92.68,1.65,1.43,2.18.75.53,1.69.8,2.81.8.77,0,1.46-.11,2.06-.34s1.15-.59,1.67-1.09l2.29,2.48c-1.4,1.6-3.44,2.4-6.13,2.4-1.67,0-3.16-.33-4.44-.98-1.29-.65-2.28-1.56-2.98-2.72-.7-1.16-1.05-2.47-1.05-3.95s.34-2.76,1.04-3.93c.69-1.17,1.64-2.08,2.84-2.73s2.55-.98,4.04-.98,2.77.31,3.95.94c1.18.62,2.1,1.52,2.77,2.69.67,1.17,1.01,2.52,1.01,4.07,0,.06-.03.44-.08,1.16ZM26.38,90.21c-.66.55-1.07,1.31-1.21,2.26h7.31c-.15-.94-.55-1.69-1.21-2.25-.66-.56-1.47-.84-2.43-.84s-1.79.28-2.46.83Z"/>
      <path class="cls-1" d="M48.43,101.2l-3.26-4.55-3.37,4.55h-4.69l5.71-7.48-5.52-7.37h4.83l3.15,4.33,3.23-4.33h4.58l-5.52,7.26,5.74,7.59h-4.88Z"/>
      <path class="cls-1" d="M64.99,100.48c-.42.31-.94.55-1.56.7s-1.26.23-1.95.23c-1.77,0-3.13-.45-4.1-1.35-.97-.9-1.45-2.23-1.45-3.97v-6.1h-2.29v-3.31h2.29v-3.62h4.3v3.62h3.7v3.31h-3.7v6.04c0,.63.16,1.11.48,1.45.32.34.78.51,1.37.51.68,0,1.26-.18,1.74-.55l1.16,3.04Z"/>
      <path class="cls-1" d="M88.58,91.23h4.08v7.84c-1.05.79-2.26,1.4-3.64,1.82s-2.77.63-4.17.63c-2,0-3.81-.43-5.41-1.28s-2.86-2.04-3.77-3.56c-.91-1.52-1.37-3.23-1.37-5.15s.46-3.63,1.37-5.15c.91-1.52,2.17-2.7,3.79-3.56,1.62-.86,3.44-1.28,5.46-1.28,1.69,0,3.23.29,4.61.86s2.54,1.4,3.48,2.48l-2.87,2.65c-1.38-1.45-3.04-2.18-4.99-2.18-1.23,0-2.33.26-3.28.77-.96.51-1.7,1.24-2.23,2.18-.53.94-.8,2.01-.8,3.23s.27,2.26.8,3.2c.53.94,1.27,1.67,2.22,2.19s2.03.79,3.24.79c1.29,0,2.45-.28,3.48-.83v-5.66Z"/>
      <path class="cls-1" d="M110.96,94.99h-11.23c.2.92.68,1.65,1.43,2.18.75.53,1.69.8,2.81.8.77,0,1.46-.11,2.06-.34s1.15-.59,1.67-1.09l2.29,2.48c-1.4,1.6-3.44,2.4-6.13,2.4-1.67,0-3.16-.33-4.44-.98-1.29-.65-2.28-1.56-2.98-2.72-.7-1.16-1.05-2.47-1.05-3.95s.34-2.76,1.04-3.93c.69-1.17,1.64-2.08,2.84-2.73s2.55-.98,4.04-.98,2.77.31,3.95.94c1.18.62,2.1,1.52,2.77,2.69.67,1.17,1.01,2.52,1.01,4.07,0,.06-.03.44-.08,1.16ZM100.89,90.21c-.66.55-1.07,1.31-1.21,2.26h7.31c-.15-.94-.55-1.69-1.21-2.25-.66-.56-1.47-.84-2.43-.84s-1.79.28-2.46.83Z"/>
      <path class="cls-1" d="M127.39,87.79c1.13,1.1,1.7,2.74,1.7,4.91v8.5h-4.3v-7.84c0-1.18-.26-2.06-.77-2.63-.51-.58-1.26-.87-2.23-.87-1.09,0-1.95.34-2.59,1.01-.64.67-.97,1.67-.97,2.99v7.34h-4.31v-14.85h4.11v1.74c.57-.62,1.28-1.11,2.12-1.45.85-.34,1.77-.51,2.79-.51,1.84,0,3.33.55,4.46,1.66Z"/>
      <path class="cls-1" d="M153.4,101.2l-3.73-5.38h-4.11v5.38h-4.47v-19.32h8.36c1.71,0,3.2.29,4.46.86,1.26.57,2.23,1.38,2.91,2.43.68,1.05,1.02,2.29,1.02,3.72s-.34,2.67-1.03,3.71c-.69,1.04-1.67,1.83-2.94,2.39l4.33,6.21h-4.8ZM152.27,86.39c-.7-.58-1.72-.87-3.06-.87h-3.64v6.73h3.64c1.34,0,2.36-.29,3.06-.88s1.05-1.42,1.05-2.48-.35-1.92-1.05-2.5Z"/>
      <path class="cls-1" d="M175.53,94.99h-11.23c.2.92.68,1.65,1.43,2.18.75.53,1.69.8,2.81.8.77,0,1.46-.11,2.06-.34s1.15-.59,1.67-1.09l2.29,2.48c-1.4,1.6-3.44,2.4-6.13,2.4-1.67,0-3.16-.33-4.44-.98-1.29-.65-2.28-1.56-2.98-2.72-.7-1.16-1.05-2.47-1.05-3.95s.34-2.76,1.04-3.93c.69-1.17,1.64-2.08,2.84-2.73s2.55-.98,4.04-.98,2.77.31,3.95.94c1.18.62,2.1,1.52,2.77,2.69.67,1.17,1.01,2.52,1.01,4.07,0,.06-.03.44-.08,1.16ZM165.46,90.21c-.66.55-1.07,1.31-1.21,2.26h7.31c-.15-.94-.55-1.69-1.21-2.25-.66-.56-1.47-.84-2.43-.84s-1.79.28-2.46.83Z"/>
      <path class="cls-1" d="M188.06,100.48c-.42.31-.94.55-1.56.7s-1.26.23-1.95.23c-1.77,0-3.13-.45-4.1-1.35-.97-.9-1.45-2.23-1.45-3.97v-6.1h-2.29v-3.31h2.29v-3.62h4.3v3.62h3.7v3.31h-3.7v6.04c0,.63.16,1.11.48,1.45.32.34.78.51,1.37.51.68,0,1.26-.18,1.74-.55l1.16,3.04Z"/>
      <path class="cls-1" d="M201.77,87.77c1.23,1.09,1.85,2.75,1.85,4.95v8.47h-4.03v-1.85c-.81,1.38-2.32,2.07-4.53,2.07-1.14,0-2.13-.19-2.97-.58-.84-.39-1.48-.92-1.92-1.6s-.66-1.45-.66-2.32c0-1.38.52-2.46,1.56-3.26s2.64-1.19,4.82-1.19h3.42c0-.94-.29-1.66-.86-2.17-.57-.51-1.43-.76-2.57-.76-.79,0-1.57.12-2.33.37s-1.41.58-1.95,1.01l-1.54-3.01c.81-.57,1.78-1.01,2.91-1.33,1.13-.31,2.29-.47,3.49-.47,2.3,0,4.07.55,5.3,1.64ZM198.1,98.01c.57-.34.98-.84,1.21-1.5v-1.52h-2.95c-1.77,0-2.65.58-2.65,1.74,0,.55.22.99.65,1.31.43.32,1.02.48,1.78.48s1.39-.17,1.96-.51Z"/>
      <path class="cls-1" d="M207.73,83.59c-.5-.46-.75-1.03-.75-1.71s.25-1.25.75-1.71c.5-.46,1.14-.69,1.93-.69s1.43.22,1.93.66c.5.44.75.99.75,1.66,0,.72-.25,1.31-.75,1.78-.5.47-1.14.7-1.93.7s-1.44-.23-1.93-.69ZM207.51,86.35h4.31v14.85h-4.31v-14.85Z"/>
      <path class="cls-1" d="M215.82,80.72h4.31v20.47h-4.31v-20.47Z"/>
      <path class="cls-1" d="M234.15,100.91c-1.43-.41-2.57-.95-3.44-1.61l1.52-3.37c.83.61,1.81,1.09,2.95,1.46s2.28.55,3.42.55c1.27,0,2.21-.19,2.81-.57.61-.38.91-.88.91-1.5,0-.46-.18-.84-.54-1.14-.36-.3-.82-.55-1.38-.73-.56-.18-1.32-.39-2.28-.61-1.47-.35-2.68-.7-3.61-1.05-.94-.35-1.74-.91-2.42-1.68s-1.01-1.8-1.01-3.09c0-1.12.3-2.14.91-3.05.61-.91,1.52-1.63,2.75-2.17,1.22-.53,2.72-.8,4.48-.8,1.23,0,2.44.15,3.61.44,1.18.29,2.21.72,3.09,1.27l-1.38,3.39c-1.78-1.01-3.57-1.52-5.35-1.52-1.25,0-2.18.2-2.77.61-.6.41-.9.94-.9,1.6s.34,1.15,1.04,1.48c.69.32,1.74.64,3.16.95,1.47.35,2.68.7,3.62,1.05.94.35,1.74.9,2.41,1.66.67.75,1.01,1.78,1.01,3.06,0,1.1-.31,2.11-.92,3.02-.62.91-1.54,1.63-2.77,2.17-1.23.53-2.73.8-4.5.8-1.53,0-3-.21-4.43-.62Z"/>
      <path class="cls-1" d="M252.39,100.44c-1.24-.65-2.21-1.56-2.91-2.72-.7-1.16-1.05-2.47-1.05-3.95s.35-2.79,1.05-3.95,1.67-2.06,2.91-2.72c1.24-.65,2.64-.98,4.21-.98s2.96.33,4.19.98,2.2,1.56,2.9,2.72,1.05,2.47,1.05,3.95-.35,2.79-1.05,3.95c-.7,1.16-1.67,2.06-2.9,2.72s-2.63.98-4.19.98-2.97-.33-4.21-.98ZM259.32,96.77c.71-.75,1.06-1.74,1.06-2.99s-.35-2.25-1.06-2.99-1.61-1.12-2.72-1.12-2.01.37-2.73,1.12c-.72.75-1.08,1.74-1.08,2.99s.36,2.25,1.08,2.99c.72.75,1.63,1.12,2.73,1.12s2.01-.37,2.72-1.12Z"/>
      <path class="cls-1" d="M267.61,80.72h4.31v20.47h-4.31v-20.47Z"/>
      <path class="cls-1" d="M290.87,86.35v14.85h-4.08v-1.77c-.57.64-1.25,1.14-2.04,1.48-.79.34-1.65.51-2.57.51-1.95,0-3.5-.56-4.64-1.68-1.14-1.12-1.71-2.79-1.71-4.99v-8.39h4.3v7.75c0,2.39,1,3.59,3.01,3.59,1.03,0,1.86-.33,2.48-1.01.62-.67.94-1.67.94-2.99v-7.34h4.3Z"/>
      <path class="cls-1" d="M304.45,100.48c-.42.31-.94.55-1.56.7s-1.26.23-1.95.23c-1.77,0-3.13-.45-4.1-1.35-.97-.9-1.45-2.23-1.45-3.97v-6.1h-2.29v-3.31h2.29v-3.62h4.3v3.62h3.7v3.31h-3.7v6.04c0,.63.16,1.11.48,1.45.32.34.78.51,1.37.51.68,0,1.26-.18,1.74-.55l1.16,3.04Z"/>
      <path class="cls-1" d="M307.1,83.59c-.5-.46-.75-1.03-.75-1.71s.25-1.25.75-1.71c.5-.46,1.14-.69,1.93-.69s1.43.22,1.93.66c.5.44.75.99.75,1.66,0,.72-.25,1.31-.75,1.78-.5.47-1.14.7-1.93.7s-1.44-.23-1.93-.69ZM306.88,86.35h4.31v14.85h-4.31v-14.85Z"/>
      <path class="cls-1" d="M318.04,100.44c-1.24-.65-2.21-1.56-2.91-2.72-.7-1.16-1.05-2.47-1.05-3.95s.35-2.79,1.05-3.95,1.67-2.06,2.91-2.72c1.24-.65,2.64-.98,4.21-.98s2.96.33,4.19.98,2.2,1.56,2.9,2.72,1.05,2.47,1.05,3.95-.35,2.79-1.05,3.95c-.7,1.16-1.67,2.06-2.9,2.72s-2.63.98-4.19.98-2.97-.33-4.21-.98ZM324.97,96.77c.71-.75,1.06-1.74,1.06-2.99s-.35-2.25-1.06-2.99-1.61-1.12-2.72-1.12-2.01.37-2.73,1.12c-.72.75-1.08,1.74-1.08,2.99s.36,2.25,1.08,2.99c.72.75,1.63,1.12,2.73,1.12s2.01-.37,2.72-1.12Z"/>
      <path class="cls-1" d="M346.74,87.79c1.13,1.1,1.7,2.74,1.7,4.91v8.5h-4.3v-7.84c0-1.18-.26-2.06-.77-2.63-.51-.58-1.26-.87-2.23-.87-1.09,0-1.95.34-2.59,1.01-.64.67-.97,1.67-.97,2.99v7.34h-4.31v-14.85h4.11v1.74c.57-.62,1.28-1.11,2.12-1.45.85-.34,1.77-.51,2.79-.51,1.84,0,3.33.55,4.46,1.66Z"/>
      <path class="cls-1" d="M353.71,100.96c-1.18-.3-2.12-.69-2.81-1.15l1.43-3.09c.66.42,1.46.77,2.4,1.04s1.86.4,2.76.4c1.82,0,2.73-.45,2.73-1.35,0-.42-.25-.73-.75-.91s-1.26-.34-2.29-.47c-1.21-.18-2.22-.4-3.01-.63-.79-.24-1.48-.66-2.06-1.27-.58-.61-.87-1.47-.87-2.59,0-.94.27-1.77.81-2.5.54-.73,1.33-1.29,2.37-1.7,1.04-.4,2.27-.61,3.68-.61,1.05,0,2.09.12,3.13.34,1.04.23,1.9.55,2.58.95l-1.44,3.06c-1.31-.74-2.73-1.1-4.28-1.1-.92,0-1.61.13-2.07.39s-.69.59-.69.99c0,.46.25.78.75.97.5.18,1.29.36,2.37.52,1.21.2,2.21.42,2.98.65.77.23,1.44.65,2.01,1.26.57.61.86,1.45.86,2.54,0,.92-.28,1.74-.83,2.46-.55.72-1.36,1.27-2.41,1.67-1.06.39-2.31.59-3.77.59-1.23,0-2.44-.15-3.62-.46Z"/>
    </g>
  </g>
</svg>