<?xml version="1.0" encoding="UTF-8"?>
<svg id="Layer_2" data-name="Layer 2" xmlns="http://www.w3.org/2000/svg" viewBox="0 0 363.63 146.99">
  <defs>
    <style>
      .cls-1 {
        fill: #f48020;
      }

      .cls-2 {
        fill: #707070;
      }
    </style>
  </defs>
  <g id="Layer_1-2" data-name="Layer 1">
    <g>
      <g>
        <path d="M191.47,53.71v15.47h-5.55V20.92h17.12c11.16,0,19.1,6.85,19.1,16.43s-7.94,16.36-19.17,16.36h-11.5ZM191.47,25.98v22.59h10.75c8.35,0,14.24-4.66,14.17-11.23,0-6.64-5.82-11.37-14.17-11.37h-10.75Z"/>
        <path d="M229.81,45.08c0-15.13,10.75-25.88,25.95-25.88s26.02,10.75,26.02,25.88-10.82,25.81-26.02,25.81-25.95-10.68-25.95-25.81ZM235.5,45.08c0,12.05,8.49,20.68,20.27,20.75,11.84,0,20.27-8.7,20.27-20.75s-8.42-20.81-20.27-20.81-20.27,8.7-20.27,20.81Z"/>
        <path d="M310.74,70.9c-11.84,0-20.33-7.26-20.4-17.32h5.68c0,7.12,6.09,12.26,14.79,12.26,7.94,0,12.8-4.18,12.8-10,0-6.44-6.85-7.39-14.31-8.35-8.97-1.23-18.21-2.67-18.21-13.42,0-8.56,7.33-14.86,18.21-14.86s19.03,6.85,19.1,16.36h-5.55c0-6.57-5.68-11.3-13.56-11.3s-12.46,3.9-12.46,9.31c0,6.44,6.44,7.46,14.04,8.49,8.83,1.23,18.49,2.67,18.49,13.08,0,9.17-7.26,15.75-18.62,15.75Z"/>
      </g>
      <path class="cls-1" d="M103.46,37.47c-9.6,0-17.38,7.78-17.38,17.38s7.78,17.38,17.38,17.38,17.38-7.78,17.38-17.38-7.78-17.38-17.38-17.38ZM103.46,63.75c-4.87,0-8.82-3.95-8.82-8.82s3.95-8.82,8.82-8.82,8.82,3.95,8.82,8.82-3.95,8.82-8.82,8.82Z"/>
      <path class="cls-1" d="M139.97,37.47c-3.21,0-6.23.87-8.81,2.4v-18.88h-8.57v33.87c0,.9.07,1.78.2,2.64,1.27,8.35,8.48,14.74,17.18,14.74,9.6,0,17.39-7.78,17.39-17.38s-7.79-17.39-17.39-17.39ZM139.97,63.76c-4.87,0-8.81-3.95-8.81-8.82s3.94-8.82,8.81-8.82,8.82,3.95,8.82,8.82-3.95,8.82-8.82,8.82Z"/>
      <g>
        <rect class="cls-1" x="161.17" y="40.11" width="8.57" height="32.13"/>
        <rect class="cls-1" x="161.17" y="31.33" width="8.57" height="6.04"/>
      </g>
      <path class="cls-1" d="M83.8,51.24v21h-8.5v-19.04c0-3.98-2.15-6.91-5.38-7.04-3.29,0-5.5,2.94-5.5,7.04v19.04h-8.51v-19.04c0-4.24-2.04-7.04-5.21-7.04s-5.33,2.8-5.33,7.04v19.04h-8.5v-28.36h-4.03l4.03-6.52h8.15v1.49h.01v3.01c1.81-3.39,4.99-4.32,8.5-4.32,4.2,0,7.32,1.51,8.97,5.17,1.87-3.65,6.11-5.17,10.14-5.17,6.57,0,11.16,5.67,11.16,13.69Z"/>
      <path class="cls-2" d="M170,8.71v17.59h-8.68v-12.4c0-2.87-2.33-5.19-5.19-5.19H50.69c-2.87,0-5.19,2.32-5.19,5.19v12.4h-8.68V8.71C36.82,3.92,40.71.03,45.5.03h115.82c4.79,0,8.68,3.89,8.68,8.68Z"/>
      <path class="cls-2" d="M169.53,77.26c-.07.62-.26,1.94-.86,3.51,0,.02-.01.03-.02.05-3.13,7.06-10.61,8.86-15.49,9.24-.02.01-.04.01-.06,0-.28.01-.56.01-.84.01-.06.01-.13.01-.19,0-1.04.05-1.66,0-1.66,0h-69.32l-16.85,10.34h-1.53l1.53-10.22h-9.58c-17.36.64-17.74-12.93-17.74-12.93h8.43c.63,5.19,8.8,4.76,8.8,4.76h17.24l-1.02,7.92,10.85-8.17s49.34-.11,66.02-.03c1.52.01,2.76.02,3.68.03.53,0,1.04,0,1.52-.02h.06c.56,0,1.51-.04,2.58-.21,6.61-.92,6.05-4.28,6.05-4.28h8.4Z"/>
    </g>
    <g>
      <path d="M17.78,122.23v19.22h-3.68l-9.67-11.67v11.67H0v-19.22h3.71l9.64,11.67v-11.67h4.43Z"/>
      <path d="M36.58,135.26h-11.27c.42,1.84,1.99,2.96,4.26,2.96,1.58,0,2.71-.47,3.74-1.43l2.3,2.47c-1.38,1.57-3.46,2.39-6.15,2.39-5.15,0-8.5-3.21-8.5-7.6s3.41-7.6,7.95-7.6,7.75,2.91,7.75,7.66c0,.33-.05.8-.08,1.15ZM25.25,132.77h7.34c-.3-1.87-1.72-3.07-3.66-3.07s-3.38,1.18-3.68,3.07Z"/>
      <path d="M48.6,141.44l-3.27-4.53-3.38,4.53h-4.71l5.73-7.44-5.54-7.33h4.85l3.16,4.31,3.24-4.31h4.6l-5.54,7.22,5.76,7.55h-4.9Z"/>
      <path d="M65.21,140.73c-.89.63-2.19.93-3.52.93-3.52,0-5.57-1.78-5.57-5.3v-6.07h-2.3v-3.29h2.3v-3.6h4.32v3.6h3.71v3.29h-3.71v6.01c0,1.26.69,1.95,1.86,1.95.64,0,1.27-.19,1.74-.55l1.16,3.02Z"/>
      <path d="M88.89,131.53h4.1v7.8c-2.13,1.59-5.07,2.44-7.84,2.44-6.09,0-10.58-4.14-10.58-9.94s4.49-9.94,10.66-9.94c3.41,0,6.23,1.15,8.12,3.32l-2.88,2.64c-1.41-1.48-3.05-2.17-5.01-2.17-3.77,0-6.34,2.5-6.34,6.15s2.58,6.15,6.29,6.15c1.22,0,2.35-.22,3.49-.82v-5.63Z"/>
      <path d="M111.34,135.26h-11.27c.42,1.84,1.99,2.96,4.26,2.96,1.58,0,2.71-.47,3.74-1.43l2.3,2.47c-1.38,1.57-3.46,2.39-6.15,2.39-5.15,0-8.5-3.21-8.5-7.6s3.41-7.6,7.95-7.6,7.75,2.91,7.75,7.66c0,.33-.05.8-.08,1.15ZM100.02,132.77h7.34c-.3-1.87-1.72-3.07-3.66-3.07s-3.38,1.18-3.68,3.07Z"/>
      <path d="M129.54,132.99v8.46h-4.32v-7.8c0-2.39-1.11-3.49-3.02-3.49-2.08,0-3.57,1.26-3.57,3.98v7.3h-4.32v-14.77h4.13v1.73c1.16-1.26,2.91-1.95,4.93-1.95,3.52,0,6.18,2.03,6.18,6.53Z"/>
      <path d="M159.36,136.2c0,3.32-2.66,5.24-7.75,5.24h-10.03v-19.22h9.47c4.85,0,7.34,2,7.34,5,0,1.92-1,3.4-2.58,4.23,2.16.69,3.54,2.33,3.54,4.75ZM146.04,125.58v4.53h4.46c2.19,0,3.38-.77,3.38-2.28s-1.19-2.25-3.38-2.25h-4.46ZM154.84,135.73c0-1.62-1.25-2.39-3.57-2.39h-5.23v4.75h5.23c2.33,0,3.57-.71,3.57-2.36Z"/>
      <path d="M161.93,122.23c0-1.34,1.08-2.39,2.69-2.39s2.69.99,2.69,2.31c0,1.43-1.08,2.47-2.69,2.47s-2.69-1.04-2.69-2.39ZM162.46,126.67h4.32v14.77h-4.32v-14.77Z"/>
      <path d="M170.79,121.07h4.32v20.37h-4.32v-20.37Z"/>
      <path d="M179.13,121.07h4.32v20.37h-4.32v-20.37Z"/>
      <path d="M186.93,122.23c0-1.34,1.08-2.39,2.69-2.39s2.69.99,2.69,2.31c0,1.43-1.08,2.47-2.69,2.47s-2.69-1.04-2.69-2.39ZM187.46,126.67h4.32v14.77h-4.32v-14.77Z"/>
      <path d="M211.03,132.99v8.46h-4.32v-7.8c0-2.39-1.11-3.49-3.02-3.49-2.08,0-3.57,1.26-3.57,3.98v7.3h-4.32v-14.77h4.13v1.73c1.16-1.26,2.91-1.95,4.93-1.95,3.52,0,6.18,2.03,6.18,6.53Z"/>
      <path d="M230.47,126.67v12.3c0,5.49-2.99,8.02-8.36,8.02-2.83,0-5.57-.69-7.31-2.03l1.72-3.07c1.27,1.02,3.35,1.67,5.26,1.67,3.05,0,4.38-1.37,4.38-4.04v-.63c-1.13,1.24-2.77,1.84-4.71,1.84-4.13,0-7.45-2.83-7.45-7.14s3.32-7.14,7.45-7.14c2.08,0,3.79.69,4.93,2.11v-1.89h4.1ZM226.2,133.59c0-2.17-1.63-3.62-3.91-3.62s-3.93,1.46-3.93,3.62,1.66,3.62,3.93,3.62,3.91-1.46,3.91-3.62Z"/>
      <path d="M260.26,141.44l-.03-11.53-5.71,9.5h-2.02l-5.68-9.25v11.28h-4.21v-19.22h3.71l7.26,11.94,7.15-11.94h3.68l.05,19.22h-4.21Z"/>
      <path d="M281.94,133.01v8.43h-4.04v-1.84c-.8,1.34-2.35,2.06-4.54,2.06-3.49,0-5.57-1.92-5.57-4.47s1.86-4.42,6.4-4.42h3.43c0-1.84-1.11-2.91-3.43-2.91-1.58,0-3.21.52-4.29,1.37l-1.55-2.99c1.63-1.15,4.04-1.78,6.43-1.78,4.54,0,7.17,2.09,7.17,6.56ZM277.62,136.77v-1.51h-2.96c-2.02,0-2.66.74-2.66,1.73,0,1.07.91,1.78,2.44,1.78,1.44,0,2.69-.66,3.18-2Z"/>
      <path d="M284.9,134.06c0-4.45,3.46-7.6,8.31-7.6,3.13,0,5.59,1.35,6.67,3.76l-3.35,1.78c-.8-1.4-1.99-2.03-3.35-2.03-2.19,0-3.91,1.51-3.91,4.09s1.72,4.09,3.91,4.09c1.36,0,2.55-.6,3.35-2.03l3.35,1.81c-1.08,2.36-3.54,3.73-6.67,3.73-4.85,0-8.31-3.16-8.31-7.6Z"/>
      <path d="M317.5,132.99v8.46h-4.32v-7.8c0-2.39-1.11-3.49-3.02-3.49-2.08,0-3.57,1.26-3.57,3.98v7.3h-4.32v-20.37h4.32v7.14c1.16-1.15,2.83-1.76,4.74-1.76,3.52,0,6.18,2.03,6.18,6.53Z"/>
      <path d="M320.87,122.23c0-1.34,1.08-2.39,2.69-2.39s2.69.99,2.69,2.31c0,1.43-1.08,2.47-2.69,2.47s-2.69-1.04-2.69-2.39ZM321.4,126.67h4.32v14.77h-4.32v-14.77Z"/>
      <path d="M344.96,132.99v8.46h-4.32v-7.8c0-2.39-1.11-3.49-3.02-3.49-2.08,0-3.57,1.26-3.57,3.98v7.3h-4.32v-14.77h4.13v1.73c1.16-1.26,2.91-1.95,4.93-1.95,3.52,0,6.18,2.03,6.18,6.53Z"/>
      <path d="M363.54,135.26h-11.27c.42,1.84,1.99,2.96,4.26,2.96,1.58,0,2.71-.47,3.74-1.43l2.3,2.47c-1.38,1.57-3.46,2.39-6.15,2.39-5.15,0-8.5-3.21-8.5-7.6s3.41-7.6,7.95-7.6,7.75,2.91,7.75,7.66c0,.33-.05.8-.08,1.15ZM352.22,132.77h7.34c-.3-1.87-1.72-3.07-3.66-3.07s-3.38,1.18-3.68,3.07Z"/>
    </g>
    <g>
      <path d="M328.94,1.27h-3.52V0h8.57v1.27h-3.54v10.3h-1.51V1.27Z"/>
      <path d="M345.03,6.49c-.09-1.61-.19-3.55-.17-5h-.05c-.4,1.36-.88,2.8-1.46,4.39l-2.04,5.61h-1.13l-1.87-5.51c-.55-1.63-1.01-3.12-1.34-4.5h-.03c-.03,1.44-.12,3.38-.22,5.12l-.31,4.96h-1.42l.81-11.57h1.91l1.97,5.6c.48,1.42.88,2.7,1.17,3.9h.05c.29-1.17.7-2.44,1.22-3.9l2.06-5.6h1.91l.72,11.57h-1.46l-.29-5.08Z"/>
    </g>
  </g>
</svg>